# xmcd CD database file
#
# Track frame offsets:
#	182
#	13532
#	26767
#	40442
#	52235
#	65680
#	77455
#	91512
#	104995
#	119080
#	134055
#	146665
#	160357
#	174527
#	188937
#	201200
#	215522
#
# Disc length: 3014 seconds
#
# Revision: 0
# Processed by: cddbd v1.5.2PL0 Copyright (c) Steve Scherf et al.
# Submitted via: CDex 1.51
#
DISCID=080bc411
DTITLE=Shearing,George - So Rare
DYEAR=1976
DGENRE=Jazz
TTITLE0=Sorry Wrong Rhumba
TTITLE1=Cottontop
TTITLE2=George큦 Boogie
TTITLE3=Bebop큦 Fables
TTITLE4=Midnight In The Air (Midnight On Cloud 69)
TTITLE5=Moon Over Miami
TTITLE6=Cherokee
TTITLE7=Life With Feather
TTITLE8=Four Bars Short
TTITLE9=So Rare
TTITLE10=Have You Met Miss Jones
TTITLE11=Buccaneer큦 Bounce
TTITLE12=When Darkness Falls
TTITLE13=Bop큦 Your Uncle
TTITLE14=Sweet And Lonely
TTITLE15=Cozy큦 Bop
TTITLE16=Sophisticated Lady
EXTD=YEAR: 1976
EXTT0=
EXTT1=
EXTT2=
EXTT3=
EXTT4=
EXTT5=
EXTT6=
EXTT7=
EXTT8=
EXTT9=
EXTT10=
EXTT11=
EXTT12=
EXTT13=
EXTT14=
EXTT15=
EXTT16=
PLAYORDER=
